<mxfile host="app.diagrams.net" modified="2022-02-21T21:37:16.846Z" agent="5.0 (Macintosh; Intel Mac OS X 10_15_7) AppleWebKit/537.36 (KHTML, like Gecko) Chrome/98.0.4758.102 Safari/537.36" etag="q_rP5wUpVBL3F08dvmZs" version="16.6.2" type="github">
  <diagram id="YUtzHxRIG3IFkdybHjwQ" name="Page-1">
    <mxGraphModel dx="2066" dy="1129" grid="1" gridSize="10" guides="1" tooltips="1" connect="1" arrows="1" fold="1" page="1" pageScale="1" pageWidth="850" pageHeight="1100" math="0" shadow="0">
      <root>
        <mxCell id="0" />
        <mxCell id="1" parent="0" />
        <mxCell id="rWj-ucClkVPSuq1iMfcy-3" value="" style="group" vertex="1" connectable="0" parent="1">
          <mxGeometry x="20" y="40" width="1490" height="1010" as="geometry" />
        </mxCell>
        <mxCell id="rWj-ucClkVPSuq1iMfcy-1" value="" style="rounded=1;whiteSpace=wrap;html=1;" vertex="1" parent="rWj-ucClkVPSuq1iMfcy-3">
          <mxGeometry y="37.875" width="760" height="972.125" as="geometry" />
        </mxCell>
        <mxCell id="rWj-ucClkVPSuq1iMfcy-2" value="Página - Careers" style="text;html=1;strokeColor=none;fillColor=none;align=center;verticalAlign=middle;whiteSpace=wrap;rounded=0;fontSize=29;" vertex="1" parent="rWj-ucClkVPSuq1iMfcy-3">
          <mxGeometry x="96.7311111111111" width="215.7133333333333" height="37.875" as="geometry" />
        </mxCell>
        <mxCell id="rWj-ucClkVPSuq1iMfcy-11" value="" style="group" vertex="1" connectable="0" parent="rWj-ucClkVPSuq1iMfcy-3">
          <mxGeometry x="33.77777777777778" y="485.19607843137254" width="591.1111111111111" height="505" as="geometry" />
        </mxCell>
        <mxCell id="rWj-ucClkVPSuq1iMfcy-8" value="&lt;font style=&quot;font-size: 24px&quot;&gt;Sección de página&lt;/font&gt;" style="text;html=1;strokeColor=none;fillColor=none;align=left;verticalAlign=middle;whiteSpace=wrap;rounded=0;fontSize=29;" vertex="1" parent="rWj-ucClkVPSuq1iMfcy-11">
          <mxGeometry x="29.555555555555557" width="310.3333333333333" height="126.25" as="geometry" />
        </mxCell>
        <mxCell id="rWj-ucClkVPSuq1iMfcy-10" value="" style="group" vertex="1" connectable="0" parent="rWj-ucClkVPSuq1iMfcy-11">
          <mxGeometry y="126.25" width="591.1111111111111" height="378.75" as="geometry" />
        </mxCell>
        <mxCell id="rWj-ucClkVPSuq1iMfcy-7" value="" style="rounded=0;whiteSpace=wrap;html=1;fontSize=29;" vertex="1" parent="rWj-ucClkVPSuq1iMfcy-10">
          <mxGeometry x="29.555555555555557" width="561.5555555555555" height="378.75" as="geometry" />
        </mxCell>
        <mxCell id="rWj-ucClkVPSuq1iMfcy-9" value="Contenido con carrusel" style="text;html=1;strokeColor=none;fillColor=none;align=center;verticalAlign=middle;whiteSpace=wrap;rounded=0;fontSize=24;" vertex="1" parent="rWj-ucClkVPSuq1iMfcy-10">
          <mxGeometry width="458.1111111111111" height="126.25" as="geometry" />
        </mxCell>
        <mxCell id="rWj-ucClkVPSuq1iMfcy-14" value="Titulo" style="shape=process;whiteSpace=wrap;html=1;backgroundOutline=1;fontSize=24;" vertex="1" parent="rWj-ucClkVPSuq1iMfcy-10">
          <mxGeometry x="44.333333333333336" y="118.59848484848484" width="177.33333333333334" height="91.81818181818181" as="geometry" />
        </mxCell>
        <mxCell id="rWj-ucClkVPSuq1iMfcy-15" value="Texto" style="shape=process;whiteSpace=wrap;html=1;backgroundOutline=1;fontSize=24;" vertex="1" parent="rWj-ucClkVPSuq1iMfcy-10">
          <mxGeometry x="44.333333333333336" y="225.71969696969697" width="192.11111111111111" height="91.81818181818181" as="geometry" />
        </mxCell>
        <mxCell id="rWj-ucClkVPSuq1iMfcy-21" value="" style="group" vertex="1" connectable="0" parent="rWj-ucClkVPSuq1iMfcy-10">
          <mxGeometry x="261.77777777777777" y="141.10294117647058" width="329.3333333333333" height="188.1372549019608" as="geometry" />
        </mxCell>
        <mxCell id="rWj-ucClkVPSuq1iMfcy-16" value="Imagenes" style="shape=process;whiteSpace=wrap;html=1;backgroundOutline=1;fontSize=24;align=left;" vertex="1" parent="rWj-ucClkVPSuq1iMfcy-21">
          <mxGeometry width="329.3333333333333" height="188.1372549019608" as="geometry" />
        </mxCell>
        <mxCell id="rWj-ucClkVPSuq1iMfcy-18" value="Img 1" style="ellipse;whiteSpace=wrap;html=1;aspect=fixed;fontSize=24;" vertex="1" parent="rWj-ucClkVPSuq1iMfcy-21">
          <mxGeometry x="143.55555555555554" y="4.950980392156864" width="67.55555555555556" height="67.55555555555556" as="geometry" />
        </mxCell>
        <mxCell id="rWj-ucClkVPSuq1iMfcy-19" value="Img 2" style="ellipse;whiteSpace=wrap;html=1;aspect=fixed;fontSize=24;" vertex="1" parent="rWj-ucClkVPSuq1iMfcy-21">
          <mxGeometry x="228" y="24.754901960784316" width="67.55555555555556" height="67.55555555555556" as="geometry" />
        </mxCell>
        <mxCell id="rWj-ucClkVPSuq1iMfcy-20" value="Img 3" style="ellipse;whiteSpace=wrap;html=1;aspect=fixed;fontSize=24;" vertex="1" parent="rWj-ucClkVPSuq1iMfcy-21">
          <mxGeometry x="160.44444444444446" y="94.0686274509804" width="67.55555555555556" height="67.55555555555556" as="geometry" />
        </mxCell>
        <mxCell id="rWj-ucClkVPSuq1iMfcy-12" value="" style="group" vertex="1" connectable="0" parent="rWj-ucClkVPSuq1iMfcy-3">
          <mxGeometry x="60" y="105.2" width="610" height="380" as="geometry" />
        </mxCell>
        <mxCell id="rWj-ucClkVPSuq1iMfcy-4" value="" style="rounded=0;whiteSpace=wrap;html=1;fontSize=29;" vertex="1" parent="rWj-ucClkVPSuq1iMfcy-12">
          <mxGeometry y="95" width="610" height="285" as="geometry" />
        </mxCell>
        <mxCell id="rWj-ucClkVPSuq1iMfcy-5" value="&lt;font style=&quot;font-size: 24px&quot;&gt;Sección de página&lt;/font&gt;" style="text;html=1;strokeColor=none;fillColor=none;align=left;verticalAlign=middle;whiteSpace=wrap;rounded=0;fontSize=29;" vertex="1" parent="rWj-ucClkVPSuq1iMfcy-12">
          <mxGeometry width="337.10526315789474" height="95" as="geometry" />
        </mxCell>
        <mxCell id="rWj-ucClkVPSuq1iMfcy-6" value="Sección - hero" style="text;html=1;strokeColor=none;fillColor=none;align=center;verticalAlign=middle;whiteSpace=wrap;rounded=0;fontSize=24;" vertex="1" parent="rWj-ucClkVPSuq1iMfcy-12">
          <mxGeometry y="95" width="280" height="95" as="geometry" />
        </mxCell>
        <mxCell id="rWj-ucClkVPSuq1iMfcy-24" value="Hero item" style="rounded=0;whiteSpace=wrap;html=1;fontSize=24;" vertex="1" parent="rWj-ucClkVPSuq1iMfcy-12">
          <mxGeometry x="80" y="200" width="480" height="160" as="geometry" />
        </mxCell>
      </root>
    </mxGraphModel>
  </diagram>
</mxfile>
